<mxfile host="app.diagrams.net" modified="2023-11-12T02:29:21.140Z" agent="Mozilla/5.0 (Windows NT 10.0; Win64; x64) AppleWebKit/537.36 (KHTML, like Gecko) Chrome/119.0.0.0 Safari/537.36" etag="SM3R21ICeoG1AnHVh9Gt" version="22.1.0" type="device">
  <diagram name="第 1 页" id="81BQW_PVizFZRQx_xTg3">
    <mxGraphModel dx="954" dy="602" grid="0" gridSize="10" guides="1" tooltips="1" connect="1" arrows="1" fold="1" page="0" pageScale="1" pageWidth="827" pageHeight="1169" math="0" shadow="0">
      <root>
        <mxCell id="0" />
        <mxCell id="1" parent="0" />
        <mxCell id="zUFn-pY8mt1LhmKZEx0T-7" style="edgeStyle=orthogonalEdgeStyle;rounded=0;orthogonalLoop=1;jettySize=auto;html=1;entryX=0.5;entryY=0;entryDx=0;entryDy=0;" edge="1" parent="1" source="zUFn-pY8mt1LhmKZEx0T-1" target="zUFn-pY8mt1LhmKZEx0T-2">
          <mxGeometry relative="1" as="geometry" />
        </mxCell>
        <mxCell id="zUFn-pY8mt1LhmKZEx0T-1" value="&lt;font style=&quot;font-size: 14px;&quot;&gt;write mode&lt;/font&gt;" style="rounded=0;whiteSpace=wrap;html=1;fillColor=#fff2cc;strokeColor=#d6b656;" vertex="1" parent="1">
          <mxGeometry x="329" y="71" width="120" height="60" as="geometry" />
        </mxCell>
        <mxCell id="zUFn-pY8mt1LhmKZEx0T-8" value="" style="edgeStyle=orthogonalEdgeStyle;rounded=0;orthogonalLoop=1;jettySize=auto;html=1;" edge="1" parent="1" source="zUFn-pY8mt1LhmKZEx0T-2" target="zUFn-pY8mt1LhmKZEx0T-3">
          <mxGeometry relative="1" as="geometry" />
        </mxCell>
        <mxCell id="zUFn-pY8mt1LhmKZEx0T-2" value="&lt;font style=&quot;font-size: 14px;&quot;&gt;get socket instancce&lt;/font&gt;" style="rounded=0;whiteSpace=wrap;html=1;fillColor=#fff2cc;strokeColor=#d6b656;" vertex="1" parent="1">
          <mxGeometry x="329" y="172" width="120" height="60" as="geometry" />
        </mxCell>
        <mxCell id="zUFn-pY8mt1LhmKZEx0T-9" value="" style="edgeStyle=orthogonalEdgeStyle;rounded=0;orthogonalLoop=1;jettySize=auto;html=1;" edge="1" parent="1" source="zUFn-pY8mt1LhmKZEx0T-3" target="zUFn-pY8mt1LhmKZEx0T-5">
          <mxGeometry relative="1" as="geometry" />
        </mxCell>
        <mxCell id="zUFn-pY8mt1LhmKZEx0T-11" value="" style="edgeStyle=orthogonalEdgeStyle;rounded=0;orthogonalLoop=1;jettySize=auto;html=1;dashed=1;" edge="1" parent="1" source="zUFn-pY8mt1LhmKZEx0T-3" target="zUFn-pY8mt1LhmKZEx0T-4">
          <mxGeometry relative="1" as="geometry" />
        </mxCell>
        <mxCell id="zUFn-pY8mt1LhmKZEx0T-12" value="send event" style="edgeLabel;html=1;align=center;verticalAlign=middle;resizable=0;points=[];" vertex="1" connectable="0" parent="zUFn-pY8mt1LhmKZEx0T-11">
          <mxGeometry x="0.0189" relative="1" as="geometry">
            <mxPoint as="offset" />
          </mxGeometry>
        </mxCell>
        <mxCell id="zUFn-pY8mt1LhmKZEx0T-3" value="&lt;font style=&quot;font-size: 14px;&quot;&gt;remove socket monitor fd set&lt;/font&gt;" style="rounded=0;whiteSpace=wrap;html=1;fillColor=#fff2cc;strokeColor=#d6b656;" vertex="1" parent="1">
          <mxGeometry x="329" y="273" width="120" height="60" as="geometry" />
        </mxCell>
        <mxCell id="zUFn-pY8mt1LhmKZEx0T-13" style="edgeStyle=orthogonalEdgeStyle;rounded=0;orthogonalLoop=1;jettySize=auto;html=1;entryX=0;entryY=0.5;entryDx=0;entryDy=0;exitX=0.5;exitY=1;exitDx=0;exitDy=0;dashed=1;" edge="1" parent="1" source="zUFn-pY8mt1LhmKZEx0T-4" target="zUFn-pY8mt1LhmKZEx0T-5">
          <mxGeometry relative="1" as="geometry" />
        </mxCell>
        <mxCell id="zUFn-pY8mt1LhmKZEx0T-14" value="complete" style="edgeLabel;html=1;align=center;verticalAlign=middle;resizable=0;points=[];" vertex="1" connectable="0" parent="zUFn-pY8mt1LhmKZEx0T-13">
          <mxGeometry x="0.2068" y="1" relative="1" as="geometry">
            <mxPoint y="1" as="offset" />
          </mxGeometry>
        </mxCell>
        <mxCell id="zUFn-pY8mt1LhmKZEx0T-4" value="&lt;font style=&quot;font-size: 14px;&quot;&gt;socket monitor&lt;/font&gt;" style="rounded=0;whiteSpace=wrap;html=1;fillColor=#f8cecc;strokeColor=#b85450;" vertex="1" parent="1">
          <mxGeometry x="103" y="273" width="120" height="60" as="geometry" />
        </mxCell>
        <mxCell id="zUFn-pY8mt1LhmKZEx0T-10" value="" style="edgeStyle=orthogonalEdgeStyle;rounded=0;orthogonalLoop=1;jettySize=auto;html=1;" edge="1" parent="1" source="zUFn-pY8mt1LhmKZEx0T-5" target="zUFn-pY8mt1LhmKZEx0T-6">
          <mxGeometry relative="1" as="geometry" />
        </mxCell>
        <mxCell id="zUFn-pY8mt1LhmKZEx0T-5" value="&lt;font style=&quot;font-size: 14px;&quot;&gt;wait&lt;/font&gt;" style="rounded=0;whiteSpace=wrap;html=1;fillColor=#d5e8d4;strokeColor=#82b366;" vertex="1" parent="1">
          <mxGeometry x="329" y="374" width="120" height="60" as="geometry" />
        </mxCell>
        <mxCell id="zUFn-pY8mt1LhmKZEx0T-16" style="edgeStyle=orthogonalEdgeStyle;rounded=0;orthogonalLoop=1;jettySize=auto;html=1;entryX=0.5;entryY=0;entryDx=0;entryDy=0;" edge="1" parent="1" source="zUFn-pY8mt1LhmKZEx0T-6" target="zUFn-pY8mt1LhmKZEx0T-15">
          <mxGeometry relative="1" as="geometry" />
        </mxCell>
        <mxCell id="zUFn-pY8mt1LhmKZEx0T-6" value="&lt;font style=&quot;font-size: 14px;&quot;&gt;close&lt;/font&gt;" style="rounded=0;whiteSpace=wrap;html=1;fillColor=#fff2cc;strokeColor=#d6b656;" vertex="1" parent="1">
          <mxGeometry x="329" y="475" width="120" height="60" as="geometry" />
        </mxCell>
        <mxCell id="zUFn-pY8mt1LhmKZEx0T-15" value="&lt;font style=&quot;font-size: 14px;&quot;&gt;reset instance&lt;/font&gt;" style="rounded=0;whiteSpace=wrap;html=1;fillColor=#fff2cc;strokeColor=#d6b656;" vertex="1" parent="1">
          <mxGeometry x="329" y="576" width="120" height="60" as="geometry" />
        </mxCell>
      </root>
    </mxGraphModel>
  </diagram>
</mxfile>
